<svg width="176" height="66" viewBox="0 0 176 66" fill="none" xmlns="http://www.w3.org/2000/svg">
<path d="M50.1479 36.5524C50.7419 38.0674 51.3158 39.5372 51.8947 41.0069C52.5139 40.9314 53.108 40.8257 53.702 40.7855C56.2593 40.6294 58.5297 41.3341 60.4577 43.0555C60.5785 43.1696 60.6893 43.2954 60.79 43.433C61.1021 43.8508 61.1323 44.3088 60.8302 44.7366C60.6238 45.0387 60.3469 45.2903 60.0952 45.5571C60.0097 45.6527 59.904 45.7282 59.7982 45.8239C60.1406 46.151 60.4778 46.453 60.7849 46.7752C62.124 48.2097 62.7985 49.911 62.8338 51.8689C62.9194 56.1322 59.8435 59.877 55.6149 60.7377C54.4319 60.9743 53.2489 60.9391 52.0609 60.8938C50.9232 60.8485 49.7855 60.773 48.6478 60.7327C47.4043 60.6824 46.166 60.6572 44.9225 60.6169C44.7766 60.6169 44.6205 60.6069 44.4795 60.5716C44.1322 60.476 43.951 60.2445 43.9459 59.9274C43.9409 59.5851 44.1322 59.3032 44.4644 59.2076C44.6255 59.1673 44.79 59.1506 44.9578 59.1573C46.2331 59.1808 47.5067 59.2093 48.7786 59.2428C48.9448 59.2428 49.1109 59.2428 49.423 59.2428C47.6359 57.8335 46.9563 55.9762 46.6945 53.8722C45.9394 53.8269 45.2095 53.7313 45.0232 52.8454C44.5299 53.2582 44.0819 53.686 43.5784 54.0484C42.3149 54.9544 40.9054 55.5081 39.3448 55.5886C37.8396 55.6591 36.3294 55.6792 34.8242 55.6792C32.8106 55.6742 30.7969 55.6289 28.7883 55.5987C28.6021 55.5987 28.4209 55.5987 28.3 55.5987C27.8721 56.2731 27.5198 56.9275 27.0717 57.5063C25.8585 59.0667 24.2929 60.1035 22.3296 60.4861C21.2674 60.6874 20.1952 60.6371 19.1229 60.5767C18.8712 60.5616 18.6195 60.5314 18.3678 60.5263C15.25 60.4894 12.1306 60.4542 9.00946 60.4206C8.92556 60.4206 8.84166 60.419 8.75776 60.4156C8.37517 60.3904 8.14864 60.1941 8.10333 59.8519C8.05299 59.4542 8.60674 59.0415 8.60674 59.0415C8.84838 58.9861 9.10511 58.971 9.35178 58.971C11.4661 58.9945 13.5787 59.018 15.6897 59.0415C15.9061 59.0465 16.1226 59.0415 16.47 59.0415C14.4362 57.3352 13.7616 55.201 14.0133 52.6642C13.812 52.639 13.6005 52.5837 13.3941 52.5988C12.7447 52.6441 12.0802 52.1156 12.1205 51.3002C12.1642 50.4848 12.3571 49.7113 12.6994 48.9798C13.7918 46.6141 15.5336 44.8575 17.804 43.6092C17.9349 43.5354 18.0641 43.4615 18.1916 43.3877C18.1983 43.3776 18.2101 43.3575 18.2269 43.3273C18.1262 43.0857 17.9701 42.9196 17.6781 42.9196C16.9096 42.923 16.1327 42.9246 15.3474 42.9246C14.8893 43.7904 14.0536 44.0219 13.1827 44.1779C12.9763 44.2182 12.7498 44.1679 12.5434 44.1125C11.4963 43.8407 10.56 43.3625 9.86526 42.522C9.60852 42.2099 9.41723 41.8173 9.27124 41.4348C9.10008 40.9818 9.38702 40.71 9.85015 40.8358C9.86693 40.8391 9.88372 40.8442 9.9005 40.8509C10.6254 41.2938 11.3352 41.1026 12.0651 40.8308C12.5652 40.6462 13.0787 40.5069 13.6056 40.413C13.8925 40.3626 14.2097 40.408 14.4966 40.4633C15 40.564 15.3323 40.8761 15.438 41.3945C17.0086 41.3945 18.549 41.3945 20.1549 41.3945C20.0593 41.2385 19.9938 41.1126 19.9133 41.0019C19.1582 39.96 18.7403 38.7822 18.5843 37.5238C18.1664 34.2119 19.2035 31.3026 21.1919 28.7154C22.6367 26.8279 24.4842 25.3833 26.5633 24.2357C26.6807 24.172 26.7965 24.1065 26.9106 24.0394C26.9358 24.0243 26.9459 23.9841 26.9761 23.9287C26.7747 23.8448 26.5767 23.7592 26.3821 23.672C25.2544 23.1536 24.2677 22.4539 23.5126 21.4472C23.4656 21.3801 23.4203 21.3113 23.3767 21.2409C22.9287 20.5211 23.0344 20.0782 23.7996 19.6906C24.7661 19.1923 25.8132 19.1017 26.8804 19.2376C28.0634 19.3886 29.0753 19.907 29.9613 20.7828C31.0939 19.4792 31.698 17.9692 32.1008 16.3283C31.9648 16.2931 31.8893 16.2528 31.8088 16.2528C30.3791 16.2427 29.2062 15.5985 28.1037 14.768C27.3536 14.1941 26.7747 13.4945 26.5079 12.5734C26.1807 11.4409 26.5935 10.6205 27.6959 10.2228C28.7279 9.85538 29.775 9.91578 30.812 10.1825C31.3406 10.3134 31.8541 10.5148 32.3927 10.6909C32.2921 10.1825 32.1712 9.68425 32.1108 9.18091C31.985 8.08867 32.141 7.03669 32.725 6.09042C32.9012 5.79848 33.1579 5.52668 33.4348 5.32534C33.9382 4.96294 34.5423 5.12904 34.8343 5.67768C34.9601 5.91425 35.0306 6.17598 35.1464 6.41759C35.3628 6.87059 35.5642 7.32863 35.826 7.75143C35.982 7.99807 36.2237 8.20443 36.4653 8.3806C36.7724 8.6071 37.0795 8.6373 37.4721 8.43597C38.9773 7.64573 40.5781 7.42929 42.2444 7.78163C42.5163 7.84203 42.7176 7.7917 42.9291 7.60043C43.3771 7.19776 43.6439 6.72462 43.6389 6.11055C43.6389 6.04344 43.6405 5.97633 43.6439 5.90922C43.6993 5.12401 44.2278 4.77671 44.9679 5.06361C45.6021 5.31024 46.0804 5.74815 46.3925 6.34712C46.7298 6.99139 46.9362 7.67593 46.9311 8.41584C46.9311 8.743 46.9311 9.07521 46.9311 9.43761C47.5101 9.26647 48.0185 9.11044 48.532 8.97454C49.0354 8.83864 49.5438 8.76817 50.0724 8.90407C50.6664 9.05507 50.9936 9.40238 51.0591 10.0114C51.2101 11.3906 50.5607 12.4023 49.5388 13.2177C49.1663 13.5146 48.7333 13.7411 48.2903 14.023C48.3457 14.6522 48.542 15.2612 48.8894 15.8199C49.2972 16.4743 49.9264 16.8065 50.6513 16.9675C51.2252 17.0934 51.784 17.2544 52.2975 17.5464C53.2892 18.1151 53.8127 18.9859 53.9738 20.0933C54.3564 22.8264 52.675 24.8448 50.5204 25.6954C49.0001 26.2944 47.4648 26.2692 45.9495 25.7457C45.1642 25.4689 44.4091 25.5243 43.6338 25.6551C43.2982 25.7122 42.9576 25.7977 42.6119 25.9118C43.216 26.2591 43.2512 26.8078 43.2462 27.3715C43.2412 28.0007 43.065 28.5896 42.7629 29.1433C42.6824 29.2842 42.5968 29.4302 42.4911 29.6214C42.6622 29.6365 42.7881 29.6667 42.9089 29.6567C44.2933 29.561 45.4411 30.014 46.2968 31.1415C46.4277 31.1163 46.5435 31.061 46.6492 31.0761C47.2584 31.1868 47.6259 30.8546 48.0084 30.4469C48.6981 29.7171 49.5791 29.2943 50.5708 29.1785C51.6128 29.0577 52.5139 29.3798 53.0727 30.316C53.9688 31.811 54.155 33.3914 53.4704 35.0273C53.0979 35.9132 52.3579 36.6631 50.9735 36.5927C50.7067 36.5826 50.4449 36.5675 50.1479 36.5524ZM45.0283 34.7253C45.1088 34.7102 45.1491 34.7152 45.1692 34.6951C45.7532 34.1263 45.9344 33.1398 45.5921 32.3143C45.2397 31.4737 44.6306 30.9351 43.6892 30.9301C43.0046 30.9251 42.3149 31.0006 41.6353 31.071C40.2862 31.2069 38.9521 31.1113 37.6584 30.7086C37.0593 30.5224 36.4401 30.3311 36.0424 29.7674C35.982 29.6818 35.8461 29.6466 35.7404 29.6013C34.643 29.1315 33.6026 28.5611 32.6193 27.89C31.3104 26.989 30.1073 25.9773 29.3421 24.5478C29.327 24.5226 29.2867 24.5176 29.2414 24.4975C28.6675 24.7743 28.0685 25.0209 27.5751 25.4689C27.6355 25.6098 27.6808 25.7155 27.7312 25.8212C28.2296 26.8833 28.2749 27.9705 27.9376 29.0929C27.1674 31.66 24.5043 33.2153 21.7255 32.7874C21.3178 32.722 20.9201 32.6213 20.467 32.5257C20.3009 33.1045 20.1247 33.6381 19.9837 34.1867C19.7069 35.2638 19.5508 36.3762 19.7773 37.4685C20.3009 40.0053 21.7608 41.772 24.2375 42.6428C24.4456 42.7132 24.652 42.7837 24.8567 42.8542C26.1404 43.3172 26.7395 44.183 26.8099 45.542C26.8653 46.6695 26.5985 47.7315 26.231 48.7785C26.1404 49.0251 26.0649 49.2768 25.9693 49.5637C27.2177 50.1828 28.592 50.2381 29.8455 50.8119C29.9814 50.5552 30.1123 50.3237 30.2281 50.0871C30.3791 49.7818 30.3321 49.5066 30.0871 49.2617C29.8505 49.0201 29.624 48.7734 29.3874 48.5419C28.7682 47.9429 28.3906 47.9479 29.1055 46.7148C30.0519 45.0873 30.5318 43.3323 30.5452 41.4499C30.5452 41.2754 30.5452 41.0958 30.5452 40.9113C30.3388 40.8962 30.2079 40.8962 30.0771 40.8861C28.7279 40.7804 27.7362 39.97 27.4795 38.6966C27.3989 38.2889 27.4191 37.8611 27.4442 37.4433C27.4795 36.8091 27.1976 36.346 26.7244 35.9736C26.5129 35.8125 26.2881 35.6682 26.0498 35.5407C25.6571 35.3343 25.5363 34.987 25.5212 34.5843C25.5061 34.2421 25.6571 34.0357 26.0045 34.0005C26.2814 33.9753 26.5784 33.9753 26.8502 34.0256C27.8621 34.2219 28.7481 34.68 29.5233 35.3444C31.0537 36.6631 31.6678 38.4147 31.8189 40.3626C31.8692 41.017 31.8239 41.6713 31.8289 42.3257C31.8289 42.4314 31.8541 42.5421 31.8692 42.6528C34.6933 41.7972 37.6382 37.6195 37.2204 35.0927C37.165 35.0675 37.1097 35.0273 37.0442 35.0122C36.9503 34.9853 36.8529 34.9652 36.7522 34.9518C35.7756 34.7706 34.8393 34.4635 33.9885 33.935C33.7318 33.779 33.47 33.6129 33.2737 33.3914C33.1227 33.2153 33.0069 32.9586 32.9918 32.727C32.9566 32.3143 33.3291 32.0979 33.7016 32.269C33.8526 32.3395 33.9936 32.4351 34.1345 32.5207C36.0475 33.6733 38.1265 34.1062 40.3415 33.9703C40.5932 33.9552 40.7795 33.8797 40.9104 33.633C41.0967 33.2807 41.4037 33.1649 41.8014 33.2555C42.2797 33.3713 42.5817 33.7085 42.5867 34.2169C42.5918 34.5139 42.5364 34.8108 42.5062 35.1028C43.0348 35.4903 43.3872 35.4249 43.6842 34.8863C43.7546 34.7555 43.8201 34.6095 43.8352 34.4686C43.8855 34.086 43.9006 33.7035 43.951 33.321C43.961 33.2203 44.0164 33.0743 44.0919 33.0391C44.1674 33.0039 44.3235 33.0592 44.399 33.1297C44.7665 33.4418 45.0132 33.8344 45.0283 34.3377C45.0283 34.4619 45.0283 34.5911 45.0283 34.7253ZM35.0004 12.6942C34.8947 13.2277 34.7185 13.3334 34.205 13.1824C34.0607 13.1388 33.9214 13.0818 33.7872 13.0113C33.22 12.7294 32.6528 12.4442 32.0857 12.1556C31.3658 11.7932 30.6409 11.451 29.8304 11.3402C29.2313 11.2597 28.6273 11.2295 28.0685 11.5416C27.847 11.6624 27.7614 11.8083 27.847 12.0701C28.0383 12.6841 28.3906 13.1824 28.8639 13.5952C30.0167 14.6018 31.3557 15.0549 32.8961 14.8938C33.2485 14.8569 33.5992 14.8485 33.9483 14.8686C34.2453 14.8837 34.4668 15.1002 34.5272 15.3518C34.5809 15.5901 34.4735 15.7981 34.205 15.976C34.1345 16.0263 34.0607 16.0649 33.9835 16.0917C33.5304 16.2176 33.4298 16.5397 33.4247 16.9726C33.4147 17.4591 33.366 17.9407 33.2787 18.4171C33.1176 19.3383 32.7653 20.1788 32.1712 20.9187C32.3072 21.412 32.6193 21.7845 32.9314 22.1519C34.0238 23.4254 35.3981 24.3062 36.8882 25.026C37.8849 25.5092 38.9253 25.8632 40.0093 26.088C40.3113 26.1484 40.5177 26.1232 40.7241 25.8263C40.9557 25.489 41.2879 25.1921 41.6403 24.9857C42.1236 24.7089 42.6673 24.5377 43.216 24.3112C42.622 23.7727 42.0934 23.1535 41.7561 22.3683C41.6303 22.4287 41.5296 22.4841 41.4239 22.5244C41.2175 22.5999 40.9607 22.6754 40.8248 22.4791C40.7241 22.3381 40.704 22.0814 40.7543 21.9103C40.9104 21.3566 41.5547 20.7174 42.3954 20.9238C43.075 21.0848 43.1203 21.2107 42.7025 21.7543C42.6958 21.7677 42.6924 21.7845 42.6924 21.8046C42.6924 21.8382 42.6975 21.87 42.7076 21.9002C42.7411 21.9573 42.778 22.0127 42.8183 22.0663C43.6691 23.2391 44.8571 23.9388 46.1962 24.3968C47.8171 24.9505 49.3878 24.8397 50.8678 23.9237C51.8847 23.2945 52.5894 22.4338 52.7656 21.2207C52.9469 19.9725 52.4636 18.85 51.1094 18.4423C50.8544 18.3685 50.596 18.3031 50.3342 18.246C49.7754 18.1202 49.2468 17.9339 48.7686 17.6017C47.9128 17.0028 47.4597 16.1471 47.1677 15.1807C47.0167 14.6673 46.911 14.1438 46.7549 13.6354C45.8387 10.6758 43.0348 8.1692 39.1585 9.19097C38.791 9.28661 38.4387 9.44264 38.0661 9.57351C38.1366 10.4896 38.0259 11.3151 37.3563 11.9342C36.6918 12.5482 35.8813 12.7546 35.0004 12.6942ZM39.2089 51.2297C39.4153 51.1995 39.6267 51.1894 39.8281 51.1391C40.6587 50.9327 41.3786 50.52 42.0179 49.9613C43.0247 49.0754 43.6791 47.9429 44.1322 46.7047C44.842 44.7769 45.4461 42.8139 46.176 40.8912C46.473 40.1059 46.5032 39.4113 46.171 38.6412C45.8287 37.851 45.582 37.0155 45.29 36.19C45.0434 36.1749 44.8168 36.2001 44.6155 36.1397C44.3738 36.0692 44.2127 36.1296 44.0214 36.2655C43.6187 36.5474 43.1657 36.6078 42.6824 36.5222C41.9575 36.3913 41.3534 36.0742 40.8902 35.5004C40.8147 35.3997 40.6939 35.2739 40.5882 35.2739C39.959 35.2538 39.3247 35.2638 38.7357 35.2638C38.4387 36.3762 38.1618 37.4232 37.8849 38.4651C37.9084 38.4986 37.9302 38.5271 37.9504 38.5506C37.9873 38.5842 38.0259 38.6161 38.0661 38.6463C39.2038 39.4667 39.672 40.6445 39.7677 41.9784C39.9036 43.9565 39.2542 45.698 38.0208 47.2332C37.9571 47.3171 37.8933 47.4094 37.8295 47.51C37.9554 47.5704 38.041 47.6157 38.1316 47.656C38.8464 47.9781 39.234 48.557 39.4354 49.2868C39.6166 49.9412 39.7425 50.6005 39.2089 51.2297ZM50.6161 49.9965C50.2033 50.5754 49.9667 51.0988 49.8006 51.6626C49.4633 52.8303 49.3878 54.0031 49.8861 55.1457C50.8376 57.3251 53.1885 58.6288 55.8465 57.7781C58.5397 56.9174 60.4124 54.0132 59.8335 51.1592C59.4358 49.1862 58.288 47.8221 56.3197 47.2181C55.625 47.0067 54.9152 46.9463 54.1852 47.1879C54.5024 48.0134 54.8246 48.8137 55.1216 49.6291C55.2122 49.8707 55.333 50.0066 55.5847 50.0871C56.7879 50.4697 57.5128 51.7481 57.251 52.9813C56.9389 54.4762 55.6602 55.4024 54.1399 55.1658C53.2489 55.0299 52.6146 54.5668 52.2622 53.6508C51.7991 52.4377 51.2 51.275 50.6161 49.9965ZM47.3137 41.9331C47.2735 41.9364 47.2332 41.9398 47.1929 41.9431C47.0352 42.4163 46.8808 42.8894 46.7298 43.3625C46.2213 44.9229 45.7683 46.4983 45.0887 47.9983C44.5953 49.0704 43.9862 50.067 43.0901 50.8623C41.7158 52.0753 40.0999 52.7145 38.2776 52.7447C36.1834 52.7749 34.0892 52.7246 31.995 52.6994C31.7735 52.6944 31.6276 52.7397 31.4715 52.9008C31.3255 53.0518 31.1342 53.2028 30.9379 53.2481C30.4546 53.3538 29.9764 53.3236 29.5435 53.0115C29.4025 52.9108 29.2213 52.8202 29.0551 52.7951C28.5215 52.7347 27.9879 52.7045 27.4493 52.6642C26.7495 52.6088 26.0498 52.5484 25.345 52.5082C24.2745 52.4511 23.2039 52.4042 22.1333 52.3672C21.9219 52.3572 21.7054 52.4125 21.4889 52.4528C20.8949 52.5585 20.7942 53.2632 21.0308 53.6508C21.2473 53.993 21.5594 54.0786 21.9319 54.0887C24.2778 54.134 26.6237 54.2044 28.9696 54.2296C32.1041 54.2665 35.2387 54.2833 38.3732 54.2799C39.2089 54.2799 40.0496 54.2296 40.855 53.9528C42.3753 53.4343 43.5835 52.478 44.6155 51.275C44.8974 50.9478 45.0635 50.5905 45.1441 50.1626C45.4562 48.4815 46.0552 46.9111 47.052 45.5068C47.3339 45.1142 47.651 44.7417 47.9329 44.3491C48.0084 44.2383 48.0739 44.0571 48.0386 43.9464C47.8171 43.2719 47.5604 42.6025 47.3137 41.9331ZM23.3465 48.6778C22.6065 48.2197 21.8564 48.1493 21.0862 48.2852C19.8126 48.5117 18.8007 49.1912 17.9752 50.1677C16.5606 51.8438 16.4096 54.4209 17.6177 56.1976C18.7353 57.8436 20.5878 58.367 22.3749 57.5264C23.1552 57.159 23.8298 56.6406 24.3634 55.951C24.459 55.8302 24.5446 55.6993 24.6956 55.4829C24.4137 55.4829 24.2476 55.4829 24.0865 55.4829C23.3817 55.4879 22.677 55.503 21.9722 55.493C21.6903 55.493 21.3983 55.4779 21.1315 55.3973C20.1398 55.1054 19.4803 54.1843 19.5659 52.9461C19.6263 52.0703 20.0542 51.4663 20.8848 51.1894C21.197 51.0837 21.5242 51.0233 21.8816 50.9327C21.7809 50.5049 22.0074 50.2029 22.2742 49.911C22.489 49.6761 22.7021 49.4395 22.9136 49.2013C23.0545 49.0452 23.1854 48.8791 23.3465 48.6778ZM46.3321 35.133C46.5183 35.6464 46.6845 36.1044 46.8456 36.5625C47.0167 37.0356 47.1828 37.5087 47.3439 37.9819C49.0253 43.0605 51.0087 48.0134 53.4352 52.78C53.5056 52.9159 53.566 53.0568 53.6567 53.1776C53.9335 53.54 54.4571 53.4947 54.6282 53.0669C54.7038 52.8806 54.6886 52.6441 54.6635 52.4377C54.6484 52.2766 54.5628 52.1206 54.5074 51.9595C52.8663 47.2131 51.1145 42.5119 49.1814 37.8762C48.7082 36.7437 48.1947 35.6363 47.4698 34.6397C47.0922 34.1213 46.9462 33.5273 46.9664 32.8881C46.9664 32.7069 47.0218 32.5056 46.8456 32.3344C46.8456 33.3059 46.9211 34.2823 46.3321 35.133ZM13.5099 51.2045C13.7667 51.275 13.9932 51.3354 14.2147 51.3958C14.4865 51.4713 14.6879 51.3958 14.8691 51.1643C15.2265 50.7012 15.6293 50.2734 15.9968 49.8153C16.6915 48.9446 17.4768 48.1694 18.4333 47.5906C19.5911 46.8859 20.8345 46.5839 22.1836 46.8809C23.0059 47.0654 23.7878 47.3557 24.5295 47.7516C24.6738 47.8255 24.8198 47.8943 24.9675 47.958C25.3098 47.3439 25.5061 46.3977 25.4256 45.8138C25.3702 45.4111 25.189 45.1091 24.7812 45.0085C24.4389 44.9279 24.0966 44.8474 23.7492 44.8222C23.0797 44.7669 22.4051 44.787 21.7406 44.7014C21.2322 44.641 20.7238 44.5001 20.2405 44.3289C19.9787 44.2383 19.7723 44.2233 19.5256 44.3189C18.3242 44.792 17.2502 45.4648 16.3038 46.3373C15.3021 47.2684 14.4563 48.3204 13.9076 49.5888C13.6962 50.0771 13.5301 50.5854 13.5099 51.2045ZM34.2503 43.1109C34.2553 43.131 34.2503 43.1713 34.2704 43.1964C34.8494 44.1779 34.8947 45.235 34.6329 46.3071C34.4869 46.9161 34.2201 47.5 34.0036 48.0989C33.8979 48.3959 33.767 48.6878 33.6915 48.9949C33.5657 49.5133 33.8426 49.9613 34.3611 50.0922C34.5859 50.1492 34.8158 50.1828 35.0507 50.1928C35.9535 50.2297 36.8563 50.265 37.7591 50.2985C37.8698 50.3019 37.9772 50.3069 38.0812 50.3136C38.1618 49.3522 37.9302 49.01 37.0543 48.718C36.8328 48.6425 36.6063 48.562 36.4099 48.4412C35.977 48.1862 35.8948 47.849 36.1633 47.4295C36.2891 47.2382 36.4603 47.0671 36.6163 46.896C37.9604 45.4766 38.5343 43.7803 38.3934 41.8475C38.348 41.2284 38.1417 40.6345 37.7389 40.1412C37.6181 39.9902 37.457 39.8794 37.3362 39.7737C36.8378 40.413 36.415 41.0371 35.9116 41.5807C35.4031 42.1294 34.8091 42.6025 34.2503 43.1109ZM31.099 21.9556C30.1324 22.3985 30.1928 23.1737 30.515 23.8532C30.5452 23.9337 30.5838 24.0075 30.6308 24.0747C30.953 24.5025 31.2399 24.9656 31.6125 25.3431C33.9986 27.7591 36.9888 28.9067 40.2711 29.4201C40.4422 29.4453 40.6637 29.4151 40.7946 29.3245C41.3383 28.9369 41.746 28.4386 41.9524 27.7893C42.0179 27.588 42.0481 27.3967 41.8266 27.2356C40.9154 27.5628 39.9841 27.4823 39.073 27.2155C38.1769 26.9537 37.2859 26.6568 36.425 26.2893C34.3158 25.3934 32.5287 24.0747 31.25 22.1368C31.203 22.0697 31.1527 22.0093 31.099 21.9556ZM52.3428 42.3005C52.6012 42.975 52.8445 43.6058 53.0727 44.1931C53.858 44.0723 54.5779 43.9363 55.3078 43.8558C56.5815 43.7199 57.7997 44.0672 59.018 44.3793C59.3854 44.4699 59.3854 44.4749 59.5616 44.1175C58.3736 42.5018 54.9252 41.7871 52.3428 42.3005ZM33.9231 6.90079C33.8577 6.92092 33.8325 6.91589 33.8274 6.92596C33.0874 8.34537 33.1881 9.73458 34.054 10.8822C34.5775 11.5768 35.6599 11.7379 36.3092 11.2698C36.6214 11.0483 36.8882 10.7664 36.858 10.3688C36.8227 9.95101 36.4854 9.73961 36.123 9.62888C35.6196 9.46445 35.2219 9.1742 34.9299 8.7581C34.6379 8.35543 34.4215 7.90243 34.1798 7.46453C34.0792 7.27829 34.0036 7.08199 33.9231 6.90079ZM46.4177 52.4528C46.7197 52.5333 46.9362 52.4729 47.0218 52.1609C47.1023 51.8891 47.208 51.6273 47.2584 51.3505C47.4194 50.525 47.6158 49.7096 48.0034 48.9647C48.3659 48.2701 48.7837 47.6057 49.2166 46.8658C49.0656 46.4933 48.8894 46.0403 48.6981 45.5672C47.3339 46.6644 46.0703 50.525 46.4177 52.4528ZM52.665 32.868C52.6146 32.1281 52.222 31.519 51.8796 30.8898C51.7739 30.6935 51.6179 30.4721 51.336 30.5224C51.0742 30.5727 51.044 30.8294 50.9785 31.0257C50.6211 32.1281 50.6765 33.2304 51.0188 34.3226C51.0893 34.5441 51.1648 34.7706 51.2755 34.9719C51.4517 35.2789 51.8998 35.284 52.0458 34.9618C52.3528 34.2974 52.6901 33.633 52.665 32.868ZM24.6705 20.8181C24.9423 21.11 25.1235 21.3466 25.3501 21.5378C26.1253 22.2073 27.0315 22.62 28.0181 22.8566C28.6625 23.0076 29.0551 22.5848 28.8941 21.9355C28.7732 21.4674 28.4611 21.1452 28.0634 20.9137C26.9962 20.3047 25.9038 20.3751 24.6705 20.8181ZM49.7653 35.0474C49.4884 33.628 49.5489 32.2489 49.6596 30.7992C48.8089 31.2673 48.2048 31.8563 47.9682 32.7522C47.9128 32.9636 47.943 33.2253 48.0135 33.4367C48.2551 34.1414 48.7686 34.6095 49.418 34.9367C49.5136 34.982 49.6244 35.0021 49.7653 35.0474ZM49.6093 10.1775C48.6629 10.2077 47.8171 10.4946 47.0117 10.9678C47.3238 11.5667 47.6007 12.1103 47.8826 12.6489C49.0253 12.1355 49.9214 11.008 49.6093 10.1775ZM45.5417 9.25641C45.8085 8.3051 45.4461 6.91589 44.9326 6.64912C44.6557 7.19272 44.3789 7.73633 44.0869 8.31013C44.5601 8.61549 45.045 8.93092 45.5417 9.25641ZM24.4641 49.6593C23.9959 49.8757 23.4472 50.4999 23.3113 50.968C24.2124 51.129 25.1185 51.1945 26.0448 51.1995C25.4054 50.7767 24.6151 50.5502 24.4641 49.6593Z" fill="black"/>
<path d="M5.3214 49.7851C3.86152 49.7851 2.40164 49.7851 0.941761 49.7851C0.824299 49.7851 0.706835 49.7801 0.589373 49.77C0.200072 49.7331 0.00374363 49.5318 0.000387577 49.166C-0.00968057 48.8036 0.17658 48.562 0.539033 48.4966C0.669919 48.4714 0.805841 48.4815 0.941761 48.4815C3.92529 48.4815 6.90882 48.4815 9.89234 48.4815C9.99302 48.4781 10.0937 48.4798 10.1944 48.4865C10.5417 48.5318 10.7683 48.7885 10.7683 49.1308C10.7733 49.4882 10.5669 49.7197 10.1944 49.765C10.0467 49.7784 9.89738 49.7818 9.74635 49.7751C8.26969 49.7784 6.79336 49.7851 5.32005 49.7851C5.32005 49.7851 5.29945 49.7851 5.3214 49.7851Z" fill="black"/>
<path d="M7.64207 46.3372C6.38691 46.3372 5.13175 46.3372 3.87659 46.3372C3.73899 46.344 3.60475 46.3406 3.47386 46.3272C3.14161 46.2919 2.93521 46.0554 2.93018 45.7232C2.92011 45.391 3.11644 45.1192 3.42352 45.0638C3.55441 45.0386 3.69032 45.0437 3.82624 45.0437C6.33657 45.0437 8.8469 45.0437 11.3572 45.0437C11.4747 45.0403 11.5921 45.042 11.7096 45.0487C12.1325 45.0839 12.359 45.3205 12.3489 45.7232C12.3389 46.0956 12.1174 46.3272 11.7096 46.3322C10.7867 46.3389 9.86546 46.3406 8.9459 46.3372C8.50961 46.3372 8.075 46.3372 7.64207 46.3372Z" fill="black"/>
<path d="M7.03795 53.3337C6.21907 53.3337 5.39852 53.3337 4.57628 53.3337C4.44204 53.3337 4.31116 53.3186 4.18363 53.2884C3.90172 53.2078 3.74902 53.0317 3.72553 52.7599C3.70539 52.483 3.80607 52.2565 4.05274 52.1307C4.19369 52.0602 4.36989 52.02 4.53601 52.0149C6.24424 52.0049 7.95247 52.0032 9.6607 52.0099C10.0886 52.0099 10.3151 52.2213 10.3403 52.5887C10.3655 53.0065 10.1289 53.2582 9.65566 53.2632C8.78309 53.2699 7.91052 53.2716 7.03795 53.2682C7.03795 53.2884 7.03795 53.3102 7.03795 53.3337Z" fill="black"/>
<path d="M9.59023 56.7916C8.78982 56.7916 7.98436 56.8016 7.18395 56.7865C6.60503 56.7765 6.29795 56.2983 6.53958 55.8403C6.65537 55.6238 6.82653 55.5282 7.06816 55.5181C7.51619 55.493 7.96926 55.4426 8.41729 55.4376C9.55499 55.4242 10.6927 55.4174 11.8304 55.4174C11.9479 55.4141 12.0653 55.4158 12.1828 55.4225C12.5452 55.4577 12.7617 55.6893 12.7667 56.0466C12.7718 56.3939 12.5503 56.6557 12.1979 56.6859C11.9311 56.711 11.6643 56.6959 11.3975 56.701C10.8941 56.7077 10.3923 56.7144 9.89228 56.7211C9.7916 56.7245 9.69092 56.7312 9.59023 56.7412C9.59023 56.758 9.59023 56.7748 9.59023 56.7916Z" fill="black"/>
<path d="M45.0806 34.7252C45.0806 34.591 45.0806 34.4618 45.0806 34.3377C45.0655 33.8343 44.8188 33.4417 44.4513 33.1297C44.3758 33.0592 44.2197 33.0038 44.1442 33.0391C44.0687 33.0743 44.0133 33.2203 44.0033 33.3209C43.9529 33.7035 43.9378 34.086 43.8875 34.4685C43.8724 34.6095 43.8069 34.7554 43.7365 34.8863C43.4395 35.4249 43.0871 35.4903 42.5585 35.1028C42.5887 34.8108 42.6441 34.5138 42.639 34.2169C42.634 33.7085 42.332 33.3713 41.8537 33.2555C41.456 33.1649 41.149 33.2807 40.9627 33.633C40.8318 33.8796 40.6455 33.9551 40.3938 33.9702C38.1788 34.1061 36.0998 33.6733 34.1868 32.5206C34.0459 32.4351 33.9049 32.3394 33.7539 32.269C33.3814 32.0978 33.0089 32.3143 33.0441 32.727C33.0592 32.9585 33.175 33.2152 33.326 33.3914C33.5223 33.6129 33.7841 33.779 34.0408 33.935C34.8916 34.4635 35.8279 34.7705 36.8045 34.9517C36.9052 34.9652 37.0026 34.9853 37.0965 35.0122C37.162 35.0273 37.2173 35.0675 37.2727 35.0927C37.6905 37.6194 34.7456 41.7971 31.9215 42.6528C31.9064 42.5421 31.8812 42.4313 31.8812 42.3256C31.8762 41.6713 31.9215 41.017 31.8712 40.3626C31.7201 38.4147 31.106 36.6631 29.5756 35.3444C28.8004 34.6799 27.9144 34.2219 26.9025 34.0256C26.6307 33.9753 26.3337 33.9753 26.0568 34.0004C25.7094 34.0357 25.5584 34.242 25.5735 34.5843C25.5886 34.987 25.7094 35.3343 26.1021 35.5407C26.3404 35.6682 26.5652 35.8125 26.7767 35.9735C27.2499 36.346 27.5318 36.8091 27.4965 37.4433C27.4714 37.861 27.4512 38.2889 27.5318 38.6966C27.7885 39.97 28.7802 40.7804 30.1294 40.8861C30.2602 40.8962 30.3911 40.8962 30.5975 40.9113C30.5975 41.0958 30.5975 41.2753 30.5975 41.4498C30.5841 43.3323 30.1042 45.0873 29.1578 46.7147C28.4429 47.9479 28.8205 47.9429 29.4397 48.5419C29.6763 48.7734 29.9028 49.02 30.1394 49.2616C30.3844 49.5066 30.4314 49.7817 30.2804 50.0871C30.1646 50.3237 30.0337 50.5552 29.8978 50.8119C28.6443 50.2381 27.27 50.1827 26.0216 49.5636C26.1172 49.2767 26.1927 49.0251 26.2833 48.7784C26.6508 47.7315 26.9176 46.6694 26.8622 45.542C26.7918 44.183 26.1927 43.3172 24.909 42.8541C24.7043 42.7837 24.4979 42.7132 24.2898 42.6427C21.8131 41.772 20.3532 40.0053 19.8296 37.4684C19.6031 36.3762 19.7592 35.2638 20.036 34.1867C20.177 33.638 20.3532 33.1045 20.5193 32.5257C20.9724 32.6213 21.3701 32.722 21.7778 32.7874C24.5566 33.2152 27.2197 31.6599 27.9899 29.0929C28.3272 27.9705 28.2819 26.8833 27.7835 25.8212C27.7331 25.7155 27.6878 25.6098 27.6274 25.4689C28.1208 25.0209 28.7198 24.7743 29.2937 24.4974C29.339 24.5176 29.3793 24.5226 29.3944 24.5478C30.1596 25.9772 31.3627 26.989 32.6716 27.8899C33.6549 28.561 34.6953 29.1315 35.7927 29.6013C35.8984 29.6466 36.0343 29.6818 36.0947 29.7674C36.4924 30.3311 37.1116 30.5224 37.7107 30.7086C39.0044 31.1113 40.3385 31.2069 41.6876 31.071C42.3672 31.0006 43.0569 30.9251 43.7415 30.9301C44.6829 30.9351 45.292 31.4737 45.6444 32.3143C45.9867 33.1397 45.8055 34.1263 45.2215 34.695C45.2014 34.7152 45.1611 34.7101 45.0806 34.7252Z" fill="white"/>
<path d="M35.0527 12.6942C35.9336 12.7546 36.7441 12.5483 37.4086 11.9342C38.0781 11.3151 38.1889 10.4896 38.1184 9.57355C38.4909 9.44268 38.8433 9.28664 39.2108 9.19101C43.0871 8.16924 45.891 10.6759 46.8072 13.6355C46.9633 14.1438 47.069 14.6673 47.22 15.1807C47.512 16.1471 47.9651 17.0028 48.8209 17.6018C49.2991 17.934 49.8277 18.1202 50.3865 18.246C50.6482 18.3031 50.9066 18.3685 51.1617 18.4423C52.5159 18.8501 52.9991 19.9725 52.8179 21.2208C52.6417 22.4338 51.937 23.2945 50.9201 23.9237C49.4401 24.8398 47.8694 24.9505 46.2484 24.3968C44.9094 23.9388 43.7213 23.2392 42.8706 22.0664C42.8303 22.0127 42.7934 21.9573 42.7598 21.9003C42.7498 21.8701 42.7447 21.8382 42.7447 21.8046C42.7447 21.7845 42.7481 21.7677 42.7548 21.7543C43.1726 21.2107 43.1273 21.0849 42.4477 20.9238C41.607 20.7174 40.9627 21.3567 40.8066 21.9103C40.7563 22.0815 40.7764 22.3382 40.8771 22.4791C41.013 22.6754 41.2697 22.5999 41.4761 22.5244C41.5819 22.4841 41.6825 22.4288 41.8084 22.3684C42.1457 23.1536 42.6743 23.7727 43.2683 24.3113C42.7196 24.5378 42.1759 24.7089 41.6926 24.9857C41.3402 25.1921 41.008 25.4891 40.7764 25.8263C40.57 26.1233 40.3636 26.1484 40.0616 26.088C38.9776 25.8632 37.9372 25.5092 36.9404 25.026C35.4504 24.3062 34.0761 23.4254 32.9837 22.1519C32.6715 21.7845 32.3594 21.412 32.2235 20.9188C32.8175 20.1789 33.1699 19.3383 33.331 18.4172C33.4183 17.9407 33.4669 17.4592 33.477 16.9726C33.482 16.5397 33.5827 16.2176 34.0358 16.0918C34.113 16.0649 34.1868 16.0263 34.2573 15.976C34.5258 15.7982 34.6332 15.5901 34.5795 15.3519C34.519 15.1002 34.2976 14.8838 34.0005 14.8687C33.6515 14.8485 33.3008 14.8569 32.9484 14.8938C31.408 15.0549 30.0689 14.6019 28.9161 13.5952C28.4429 13.1825 28.0905 12.6842 27.8992 12.0701C27.8137 11.8084 27.8992 11.6624 28.1207 11.5416C28.6795 11.2295 29.2836 11.2597 29.8827 11.3403C30.6932 11.451 31.4181 11.7933 32.1379 12.1557C32.7051 12.4442 33.2723 12.7295 33.8395 13.0113C33.9737 13.0818 34.113 13.1389 34.2573 13.1825C34.7708 13.3335 34.9469 13.2278 35.0527 12.6942ZM40.5952 15.3066C40.6657 15.9408 40.8419 16.4793 41.1389 16.7662C41.5617 17.179 42.1255 17.1186 42.3923 16.5951C42.5132 16.3535 42.5786 16.0565 42.5887 15.7847C42.6138 15.2764 42.5434 14.7781 42.1557 14.3955C41.7631 14.0079 41.1993 14.0281 40.9073 14.4861C40.7512 14.7277 40.6959 15.0297 40.5952 15.3066ZM46.8425 15.3468C46.8173 14.9341 46.7267 14.5616 46.4951 14.2395C46.3089 13.9828 46.0471 13.8318 45.7199 13.867C45.4027 13.9073 45.2014 14.1338 45.146 14.4257C45.0252 15.0801 45.0654 15.7294 45.448 16.2981C45.7652 16.7763 46.2988 16.7511 46.5656 16.2377C46.7066 15.9659 46.7519 15.6438 46.8425 15.3468ZM47.3912 21.6838C48.0053 21.6989 48.2822 21.402 48.1815 20.8332C48.0657 20.194 47.3408 19.7208 46.7066 19.8718C46.2938 19.9624 46.1176 20.2158 46.178 20.6319C46.2635 21.2308 46.7619 21.6637 47.3912 21.6838ZM50.3261 20.8282C50.3714 20.9389 50.4016 21.11 50.4922 21.2409C50.6885 21.553 51.056 21.5479 51.2775 21.2459C51.5393 20.8886 51.5795 20.3299 51.3631 19.9675C51.2473 19.7661 51.0157 19.6906 50.8597 19.8316C50.5828 20.0832 50.3915 20.3953 50.3261 20.8282Z" fill="white"/>
<path d="M47.366 41.9331C47.6126 42.6025 47.8694 43.272 48.0909 43.9465C48.1261 44.0572 48.0607 44.2384 47.9851 44.3491C47.7032 44.7417 47.3861 45.1142 47.1042 45.5068C46.1074 46.9111 45.5084 48.4815 45.1963 50.1627C45.1157 50.5905 44.9496 50.9479 44.6677 51.275C43.6357 52.478 42.4275 53.4344 40.9072 53.9528C40.1018 54.2296 39.2611 54.28 38.4254 54.28C35.2909 54.2833 32.1563 54.2665 29.0218 54.2296C26.6759 54.2045 24.33 54.134 21.9842 54.0887C21.6116 54.0786 21.2995 53.9931 21.0831 53.6508C20.8465 53.2632 20.9471 52.5586 21.5412 52.4529C21.7576 52.4126 21.9741 52.3572 22.1855 52.3673C23.2561 52.4042 24.3267 52.4512 25.3973 52.5082C26.102 52.5485 26.8018 52.6089 27.5015 52.6643C28.0401 52.7045 28.5738 52.7347 29.1074 52.7951C29.2735 52.8203 29.4547 52.9109 29.5957 53.0116C30.0286 53.3236 30.5068 53.3538 30.9901 53.2481C31.1864 53.2028 31.3777 53.0518 31.5237 52.9008C31.6798 52.7398 31.8258 52.6945 32.0473 52.6995C34.1414 52.7247 36.2356 52.775 38.3298 52.7448C40.1521 52.7146 41.7681 52.0754 43.1424 50.8623C44.0384 50.067 44.6476 49.0704 45.1409 47.9983C45.8205 46.4984 46.2736 44.9229 46.782 43.3626C46.933 42.8894 47.0874 42.4163 47.2451 41.9432C47.2854 41.9398 47.3257 41.9365 47.366 41.9331Z" fill="#4A90E2"/>
<path d="M46.3844 35.133C46.9734 34.2824 46.8979 33.3059 46.8979 32.3345C47.0741 32.5056 47.0187 32.7069 47.0187 32.8881C46.9986 33.5274 47.1445 34.1213 47.5221 34.6398C48.247 35.6364 48.7605 36.7437 49.2337 37.8762C51.1668 42.512 52.9186 47.2131 54.5597 51.9596C54.6151 52.1207 54.7007 52.2767 54.7158 52.4378C54.741 52.6441 54.7561 52.8807 54.6806 53.0669C54.5094 53.4948 53.9858 53.5401 53.709 53.1777C53.6184 53.0569 53.558 52.9159 53.4875 52.78C51.0611 48.0134 49.0776 43.0606 47.3962 37.9819C47.2352 37.5088 47.069 37.0356 46.8979 36.5625C46.7368 36.1045 46.5707 35.6464 46.3844 35.133Z" fill="#4A90E2"/>
<path d="M13.5621 51.2046C13.5823 50.5855 13.7484 50.0771 13.9598 49.5888C14.5085 48.3204 15.3543 47.2685 16.356 46.3373C17.3024 45.4648 18.3764 44.792 19.5779 44.3189C19.8245 44.2233 20.0309 44.2384 20.2927 44.329C20.776 44.5001 21.2844 44.641 21.7928 44.7014C22.4573 44.787 23.1319 44.7669 23.8014 44.8222C24.1488 44.8474 24.4911 44.9279 24.8334 45.0085C25.2412 45.1091 25.4224 45.4111 25.4778 45.8138C25.5583 46.3977 25.362 47.344 25.0197 47.958C24.872 47.8943 24.726 47.8255 24.5817 47.7517C23.84 47.3557 23.0581 47.0655 22.2358 46.8809C20.8867 46.5839 19.6433 46.8859 18.4855 47.5906C17.529 48.1694 16.7437 48.9446 16.049 49.8154C15.6815 50.2734 15.2788 50.7012 14.9213 51.1643C14.7401 51.3958 14.5387 51.4713 14.2669 51.3958C14.0454 51.3354 13.8189 51.275 13.5621 51.2046Z" fill="#4A90E2"/>
<path d="M34.3025 43.1108C34.8613 42.6024 35.4553 42.1293 35.9638 41.5807C36.4672 41.0371 36.8901 40.4129 37.3884 39.7737C37.5092 39.8794 37.6703 39.9901 37.7912 40.1411C38.1939 40.6344 38.4003 41.2283 38.4456 41.8474C38.5865 43.7802 38.0127 45.4765 36.6686 46.8959C36.5125 47.067 36.3413 47.2382 36.2155 47.4294C35.947 47.8489 36.0292 48.1861 36.4622 48.4411C36.6585 48.5619 36.885 48.6425 37.1065 48.718C37.9825 49.0099 38.214 49.3522 38.1335 50.3136C38.0294 50.3068 37.922 50.3018 37.8113 50.2985C36.9085 50.2649 36.0057 50.2297 35.103 50.1928C34.868 50.1827 34.6382 50.1491 34.4133 50.0921C33.8948 49.9612 33.6179 49.5133 33.7438 48.9948C33.8193 48.6878 33.9502 48.3958 34.0559 48.0989C34.2723 47.4999 34.5391 46.916 34.6851 46.307C34.9469 45.2349 34.9016 44.1779 34.3227 43.1964C34.3025 43.1712 34.3076 43.1309 34.3025 43.1108Z" fill="white"/>
<path d="M52.395 42.3004C54.9775 41.787 58.4258 42.5018 59.6139 44.1175C59.4377 44.4749 59.4377 44.4698 59.0702 44.3792C57.852 44.0672 56.6337 43.7198 55.3601 43.8557C54.6302 43.9363 53.9103 44.0722 53.125 44.193C52.8968 43.6058 52.6534 42.9749 52.395 42.3004Z" fill="#4A90E2"/>
<path d="M33.9753 6.90076C34.0559 7.08196 34.1314 7.27826 34.2321 7.4645C34.4737 7.9024 34.6902 8.3554 34.9822 8.75807C35.2741 9.17416 35.6718 9.46442 36.1752 9.62885C36.5377 9.73958 36.875 9.95098 36.9102 10.3688C36.9404 10.7664 36.6736 11.0483 36.3615 11.2697C35.7121 11.7378 34.6298 11.5768 34.1062 10.8822C33.2404 9.73455 33.1397 8.34533 33.8797 6.92592C33.8847 6.91586 33.9099 6.92089 33.9753 6.90076Z" fill="white"/>
<path d="M46.47 52.4528C46.1226 50.525 47.3862 46.6644 48.7504 45.5671C48.9417 46.0403 49.1179 46.4933 49.2689 46.8657C48.836 47.6057 48.4182 48.2701 48.0557 48.9647C47.6681 49.7096 47.4717 50.525 47.3107 51.3505C47.2603 51.6273 47.1546 51.889 47.0741 52.1609C46.9885 52.4729 46.772 52.5333 46.47 52.4528Z" fill="#4A90E2"/>
<path d="M52.7173 32.8679C52.7424 33.633 52.4051 34.2974 52.0981 34.9618C51.9521 35.284 51.504 35.2789 51.3278 34.9719C51.2171 34.7705 51.1416 34.544 51.0711 34.3226C50.7288 33.2303 50.6734 32.128 51.0308 31.0257C51.0963 30.8294 51.1265 30.5727 51.3883 30.5224C51.6702 30.472 51.8262 30.6935 51.9319 30.8898C52.2743 31.519 52.6669 32.128 52.7173 32.8679Z" fill="white"/>
<path d="M49.8176 35.0475C49.6767 35.0022 49.5659 34.982 49.4703 34.9367C48.8209 34.6096 48.3074 34.1415 48.0658 33.4368C47.9953 33.2254 47.9651 32.9637 48.0205 32.7523C48.2571 31.8563 48.8612 31.2674 49.7119 30.7993C49.6012 32.2489 49.5408 33.6281 49.8176 35.0475Z" fill="#4A90E2"/>
<path d="M49.6615 10.1775C49.9737 11.008 49.0776 12.1355 47.9349 12.6489C47.653 12.1103 47.3761 11.5667 47.064 10.9677C47.8694 10.4946 48.7151 10.2077 49.6615 10.1775Z" fill="white"/>
<path d="M45.594 9.25646C45.0973 8.93097 44.6124 8.61554 44.1392 8.31018C44.4311 7.73638 44.708 7.19277 44.9849 6.64917C45.4984 6.91594 45.8608 8.30515 45.594 9.25646Z" fill="white"/>
<path d="M40.5952 15.3065C40.6959 15.0297 40.7513 14.7277 40.9073 14.4861C41.1993 14.028 41.7631 14.0079 42.1558 14.3955C42.5434 14.778 42.6139 15.2763 42.5887 15.7847C42.5786 16.0565 42.5132 16.3535 42.3924 16.5951C42.1256 17.1185 41.5618 17.1789 41.1389 16.7662C40.8419 16.4793 40.6657 15.9407 40.5952 15.3065Z" fill="black"/>
<path d="M46.8425 15.3467C46.7519 15.6437 46.7066 15.9658 46.5656 16.2376C46.2988 16.751 45.7652 16.7762 45.4481 16.298C45.0655 15.7292 45.0252 15.0799 45.146 14.4256C45.2014 14.1337 45.4027 13.9072 45.7199 13.8669C46.0471 13.8317 46.3089 13.9827 46.4951 14.2394C46.7267 14.5615 46.8173 14.934 46.8425 15.3467Z" fill="black"/>
<path d="M47.3912 21.6838C46.7619 21.6637 46.2635 21.2308 46.1779 20.6318C46.1175 20.2157 46.2937 19.9624 46.7065 19.8718C47.3408 19.7208 48.0657 20.1939 48.1815 20.8332C48.2822 21.4019 48.0053 21.6989 47.3912 21.6838Z" fill="black"/>
<path d="M50.326 20.8281C50.3915 20.3952 50.5828 20.0832 50.8597 19.8315C51.0157 19.6905 51.2473 19.766 51.3631 19.9674C51.5795 20.3298 51.5393 20.8885 51.2775 21.2459C51.056 21.5479 50.6885 21.5529 50.4922 21.2408C50.4016 21.11 50.3714 20.9388 50.326 20.8281Z" fill="black"/>
<path d="M31.1513 21.9556C31.205 22.0093 31.2553 22.0697 31.3023 22.1368C32.581 24.0746 34.3681 25.3934 36.4773 26.2893C37.3382 26.6567 38.2292 26.9537 39.1253 27.2154C40.0364 27.4822 40.9677 27.5627 41.8789 27.2356C42.1004 27.3966 42.0702 27.5879 42.0048 27.7892C41.7984 28.4386 41.3906 28.9369 40.8469 29.3244C40.716 29.415 40.4945 29.4452 40.3234 29.4201C37.0412 28.9067 34.0509 27.759 31.6648 25.343C31.2922 24.9655 31.0053 24.5025 30.6831 24.0746C30.6361 24.0075 30.5975 23.9337 30.5673 23.8531C30.2452 23.1736 30.1848 22.3985 31.1513 21.9556Z" fill="#E43636"/>
<path d="M24.7227 20.818C25.956 20.3751 27.0484 20.3046 28.1156 20.9137C28.5133 21.1452 28.8254 21.4673 28.9462 21.9355C29.1073 22.5848 28.7147 23.0076 28.0703 22.8566C27.0836 22.62 26.1775 22.2073 25.4023 21.5378C25.1757 21.3465 24.9945 21.11 24.7227 20.818Z" fill="#E43636"/>
<line x1="74.1611" y1="0.896811" x2="74.1611" y2="64.9937" stroke="#D1D5DC" stroke-width="1.79362" stroke-linecap="round"/>
<path d="M83.5776 44.3074V21.4868H89.2024L95.5022 39.1647L101.802 21.4868H107.427V44.3074H103.248V28.558L97.495 44.2753H93.5094L87.7561 28.558V44.3074H83.5776Z" fill="white"/>
<path d="M110.15 44.3074V27.1437H114.264V44.3074H110.15ZM110.086 24.8617V21.1975H114.36V24.8617H110.086Z" fill="white"/>
<path d="M121.069 44.3074C119.826 44.3074 118.83 43.986 118.08 43.3431C117.33 42.7003 116.955 41.6718 116.955 40.2575V21.4868H121.069V39.8397C121.069 40.2683 121.176 40.5897 121.39 40.804C121.626 41.0182 121.947 41.1254 122.355 41.1254H123.608V44.3074H121.069Z" fill="white"/>
<path d="M124.639 44.3074V21.4868H128.753V34.8899L135.792 27.1437H140.87L134.153 34.2792L141.095 44.3074H136.467L131.453 36.722L128.753 39.5826V44.3074H124.639Z" fill="white"/>
<path d="M148.711 44.3074V35.3077L140.739 21.4868H145.432L150.832 31.1936L156.2 21.4868H160.892L152.921 35.3077V44.3074H148.711Z" fill="white"/>
<path d="M164.135 44.6931C162.335 44.6931 160.889 44.286 159.796 43.4717C158.703 42.636 158.157 41.4789 158.157 40.0004C158.157 38.5219 158.618 37.3648 159.539 36.5291C160.46 35.6934 161.864 35.0934 163.75 34.7292L169.439 33.6042C169.439 32.3828 169.16 31.4721 168.603 30.8722C168.046 30.2508 167.221 29.9401 166.128 29.9401C165.142 29.9401 164.36 30.1758 163.782 30.6472C163.225 31.0972 162.839 31.7507 162.625 32.6078L158.446 32.415C158.789 30.5936 159.625 29.2008 160.953 28.2365C162.282 27.2509 164.007 26.758 166.128 26.758C168.571 26.758 170.414 27.3794 171.656 28.6222C172.921 29.8436 173.553 31.6007 173.553 33.8935V40.129C173.553 40.579 173.628 40.8897 173.778 41.0611C173.949 41.2325 174.196 41.3182 174.517 41.3182H175.063V44.3074C174.935 44.3503 174.721 44.3824 174.421 44.4038C174.142 44.4252 173.853 44.436 173.553 44.436C172.846 44.436 172.214 44.3288 171.656 44.1145C171.099 43.8788 170.671 43.4824 170.371 42.9253C170.071 42.3468 169.921 41.5646 169.921 40.579L170.274 40.8361C170.103 41.5861 169.728 42.261 169.149 42.861C168.592 43.4396 167.885 43.8896 167.028 44.211C166.171 44.5324 165.207 44.6931 164.135 44.6931ZM164.971 41.7039C165.892 41.7039 166.685 41.5218 167.349 41.1575C168.014 40.7932 168.528 40.2897 168.892 39.6468C169.257 39.004 169.439 38.2433 169.439 37.3648V36.4005L165.003 37.3005C164.082 37.4934 163.417 37.7826 163.01 38.1683C162.625 38.5326 162.432 39.0147 162.432 39.6147C162.432 40.279 162.646 40.7932 163.075 41.1575C163.525 41.5218 164.157 41.7039 164.971 41.7039Z" fill="white"/>
</svg>
